<svg width="114" height="114" fill="none" xmlns="http://www.w3.org/2000/svg"><path d="M79.8 68.4v11.4H34.2V68.4h-7.6V95c0 4.179 3.422 7.6 7.6 7.6h45.6c4.178 0 7.6-3.421 7.6-7.6V68.4h-7.6zM60.8 95h-7.6a3.797 3.797 0 01-3.8-3.8c0-2.101 1.7-3.8 3.8-3.8h7.6c2.1 0 3.8 1.699 3.8 3.8S62.9 95 60.8 95zm3.8-59.227L78.227 49.4 64.6 63.026l5.373 5.374 16.314-16.313a3.8 3.8 0 000-5.374L69.973 30.4 64.6 35.773zM49.4 63.026L35.773 49.4 49.4 35.773 44.027 30.4 27.713 46.714a3.8 3.8 0 000 5.374L44.027 68.4l5.373-5.374zM26.6 19c0-4.179 3.422-7.6 7.6-7.6h45.6c4.178 0 7.6 3.421 7.6 7.6v11.4h-7.6V19H34.2v11.4h-7.6V19z" fill="#000"/></svg>