<svg width="111" height="111" fill="none" xmlns="http://www.w3.org/2000/svg"><path d="M70.3 62.9H48.1v7.4h22.2v-7.4z" fill="#000"/><path d="M92.5 25.9h-7.4v-7.4c0-4.07-3.332-7.4-7.4-7.4H18.5c-4.069 0-7.4 3.33-7.4 7.4v59.2c0 4.07 3.331 7.4 7.4 7.4h7.4v7.4c0 4.068 3.332 7.4 7.4 7.4h59.2c4.069 0 7.4-3.332 7.4-7.4V33.3c0-4.07-3.331-7.4-7.4-7.4zm-14.8-7.4v7.4H18.5v-7.4h59.2zM18.5 77.7V33.3h59.2v44.4H18.5zm74 14.8H33.3v-7.4h44.4c4.068 0 7.4-3.33 7.4-7.4V48.1h7.4v44.4zm0-51.8h-7.4v-7.4h7.4v7.4z" fill="#000"/><path d="M45.166 52.88L31.132 38.85 25.9 44.08l11.418 11.417L25.9 66.914l5.232 5.232 14.034-14.033a3.702 3.702 0 000-5.233z" fill="#000"/></svg>