<svg width="111" height="111" fill="none" xmlns="http://www.w3.org/2000/svg"><path d="M97.913 52.997L87.26 27.282C81.74 13.956 66.326 7.568 52.996 13.085L27.28 23.74C13.954 29.26 7.567 44.679 13.088 58.005L23.74 83.724c5.52 13.325 20.939 19.71 34.264 14.19l25.72-10.654c13.322-5.52 19.71-20.934 14.19-34.263zM80.89 80.425L55.175 91.077a18.605 18.605 0 01-7.14 1.424c-7.682 0-14.54-4.557-17.46-11.61L19.922 55.176c-1.916-4.622-1.905-9.735.03-14.399 1.928-4.665 5.538-8.285 10.156-10.2l25.718-10.656a18.533 18.533 0 017.13-1.42c7.689 0 14.544 4.557 17.466 11.613l10.652 25.712c3.973 9.594-.593 20.624-10.184 24.6z" fill="#000"/><path d="M83.872 57.767l-2.833-6.838-11.454 4.744L65.34 45.42l11.45-4.747-2.833-6.837L62.51 38.58l-4.744-11.45-6.837 2.832 4.744 11.45-10.254 4.245-4.744-11.447-6.836 2.83 4.744 11.45-11.455 4.745 2.833 6.837 11.454-4.744 4.245 10.255-11.453 4.743 2.833 6.837 11.454-4.745 4.743 11.45 6.836-2.83-4.744-11.452 10.25-4.246 4.742 11.454 6.84-2.834-4.743-11.45 11.454-4.742zm-31.375 4.981l-4.245-10.254 10.25-4.246 4.246 10.259-10.25 4.241z" fill="#000"/></svg>