<svg width="111" height="111" fill="none" xmlns="http://www.w3.org/2000/svg"><path d="M88.8 70.825v-33.82c0-8.174-6.623-14.805-14.796-14.805H60.732l5.865-5.869-5.233-5.231-12.18 12.185a3.7 3.7 0 000 5.232L61.37 40.702l5.231-5.234-5.867-5.868 13.27.004a7.397 7.397 0 017.397 7.4v33.82c-6.37 1.651-11.1 7.389-11.1 14.276 0 8.173 6.627 14.8 14.8 14.8 8.173 0 14.8-6.627 14.8-14.8 0-6.887-4.73-12.625-11.1-14.275zM85.1 92.5a7.4 7.4 0 110-14.8 7.4 7.4 0 017.4 7.4 7.4 7.4 0 01-7.4 7.4zM61.816 82.484L49.632 70.3 44.4 75.532l5.867 5.868-13.27-.004a7.397 7.397 0 01-7.397-7.4v-33.82c6.374-1.651 11.1-7.389 11.1-14.276 0-8.172-6.627-14.8-14.8-14.8-8.173 0-14.8 6.628-14.8 14.8 0 6.887 4.726 12.625 11.1 14.275v33.82c0 8.174 6.623 14.805 14.796 14.805h13.271l-5.864 5.868 5.233 5.232 12.18-12.184a3.698 3.698 0 000-5.232zM25.9 33.3a7.4 7.4 0 01-7.4-7.4 7.4 7.4 0 117.4 7.4z" fill="#000"/></svg>