<svg width="114" height="114" viewBox="0 0 114 114" fill="none" xmlns="http://www.w3.org/2000/svg">
<path d="M79.8 68.4V79.8H34.2V68.4H26.5996V94.9996C26.5996 99.1789 30.0219 102.6 34.2 102.6H79.8C83.9781 102.6 87.4004 99.1789 87.4004 94.9996V68.4H79.8ZM60.7996 94.9996H53.2004C51.0993 94.9996 49.3996 93.301 49.3996 91.2C49.3996 89.099 51.0993 87.4004 53.2004 87.4004H60.7996C62.9006 87.4004 64.6004 89.099 64.6004 91.2C64.6004 93.301 62.9006 94.9996 60.7996 94.9996Z" fill="black"/>
<path d="M64.6004 35.7732L78.2268 49.3996L64.6004 63.026L69.9732 68.4L86.2866 52.0866C87.7709 50.6012 87.7709 48.1935 86.2866 46.7126L69.9732 30.4004L64.6004 35.7732Z" fill="black"/>
<path d="M49.3996 63.026L35.7732 49.3996L49.3996 35.7732L44.0268 30.4004L27.7134 46.7138C26.2291 48.1981 26.2291 50.6069 27.7134 52.0877L44.0268 68.4L49.3996 63.026Z" fill="black"/>
<path d="M26.5996 19.0004C26.5996 14.8211 30.0219 11.4 34.2 11.4H79.8C83.9781 11.4 87.4004 14.8211 87.4004 19.0004V30.4004H79.8V19.0004H34.2V30.4004H26.5996V19.0004Z" fill="black"/>
</svg>
