<svg width="111" height="111" viewBox="0 0 111 111" fill="none" xmlns="http://www.w3.org/2000/svg">
<path d="M70.2996 62.8993H48.0996V70.3007H70.2996V62.8993Z" fill="black"/>
<path d="M92.4996 25.8996H85.1004V18.4993C85.1004 14.43 81.7681 11.1 77.7 11.1H18.5004C14.4311 11.1 11.1 14.43 11.1 18.5004V77.7C11.1 81.7693 14.4311 85.0993 18.5004 85.0993H25.8996V92.5007C25.8996 96.5678 29.2319 99.9 33.3 99.9H92.4996C96.5689 99.9 99.9 96.5678 99.9 92.5007V33.3C99.9 29.2296 96.5689 25.8996 92.4996 25.8996ZM77.7 18.5004V25.9007H18.5004V18.5004H77.7ZM18.5004 77.7V33.3H77.7V77.7H18.5004ZM92.4996 92.5007H33.3V85.0993H77.7C81.7681 85.0993 85.1004 81.7693 85.1004 77.7V48.0996H92.4996V92.5007ZM92.4996 40.7004H85.1004V33.3H92.4996V40.7004Z" fill="black"/>
<path d="M45.1659 52.8804L31.1322 38.8489L25.8996 44.0803L37.3182 55.4967L25.8996 66.9141L31.1322 72.1456L45.1659 58.1129C46.6078 56.6688 46.6111 54.3278 45.1659 52.8804Z" fill="black"/>
</svg>
