<svg width="111" height="111" viewBox="0 0 111 111" fill="none" xmlns="http://www.w3.org/2000/svg">
<path d="M97.9131 52.9969L87.2604 27.2816C81.7393 13.956 66.3258 7.56798 52.9958 13.0847L27.2805 23.7407C13.9538 29.2607 7.56575 44.6786 13.0869 58.0053L23.7396 83.724C29.2596 97.0495 44.6786 103.434 58.0041 97.9131L83.724 87.2604C97.0462 81.7404 103.434 66.3258 97.9131 52.9969ZM80.8901 80.4251L55.1748 91.0766C52.8904 92.0201 50.4917 92.5007 48.0341 92.5007C40.3529 92.5007 33.4942 87.9442 30.5749 80.8912L19.9223 55.1759C18.0064 50.5538 18.0175 45.4412 19.9511 40.777C21.8803 36.1116 25.49 32.4919 30.1076 30.5772L55.8263 19.9212C58.1029 18.9777 60.5028 18.5015 62.9559 18.5015C70.6448 18.5015 77.5002 23.058 80.4217 30.1143L91.0744 55.8263C95.0471 65.4201 90.4805 76.4501 80.8901 80.4251Z" fill="black"/>
<path d="M83.8716 57.7666L81.0389 50.929L69.5848 55.6732L65.3401 45.419L76.7898 40.6715L73.9571 33.835L62.5096 38.5792L57.7655 27.1284L50.929 29.9611L55.6731 41.4108L45.419 45.6565L40.6748 34.2091L33.8394 37.0385L38.5825 48.4881L27.1284 53.2345L29.9611 60.071L41.4152 55.3268L45.6598 65.5821L34.2069 70.3252L37.0396 77.1616L48.4937 72.4175L53.2367 83.8672L60.0732 81.0378L55.329 69.5848L65.5799 65.339L70.3207 76.7931L77.1605 73.9593L72.4175 62.5096L83.8716 57.7666ZM52.4974 62.7483L48.2517 52.4941L58.5025 48.2484L62.7483 58.507L52.4974 62.7483Z" fill="black"/>
</svg>
