<svg width="111" height="111" viewBox="0 0 111 111" fill="none" xmlns="http://www.w3.org/2000/svg">
<path d="M88.8 70.8247V37.0041C88.8 28.8311 82.1766 22.2 74.0037 22.2H60.7325L66.5967 16.3314L61.3641 11.1L49.1841 23.2845C47.7389 24.7264 47.7389 27.0707 49.1841 28.517L61.3686 40.7015L66.6 35.4678L60.7325 29.6004L74.0037 29.6037C78.0907 29.6037 81.3996 32.917 81.3996 37.0041V70.8247C75.0304 72.4752 70.2996 78.2128 70.2996 85.1004C70.2996 93.2733 76.9274 99.9 85.1004 99.9C93.2733 99.9 99.9 93.2733 99.9 85.1004C99.9 78.2128 95.1703 72.4752 88.8 70.8247ZM85.1004 92.4996C81.0134 92.4996 77.7 89.1874 77.7 85.1004C77.7 81.0133 81.0134 77.7 85.1004 77.7C89.1874 77.7 92.4996 81.0133 92.4996 85.1004C92.4996 89.1874 89.1874 92.4996 85.1004 92.4996Z" fill="black"/>
<path d="M61.8159 82.4841L49.6325 70.2996L44.4 75.5322L50.2675 81.3996L36.9963 81.3963C32.9093 81.3963 29.6004 78.0829 29.6004 73.9959V40.1753C35.974 38.5248 40.7004 32.7872 40.7004 25.8996C40.7004 17.7278 34.0726 11.1 25.8996 11.1C17.7267 11.1 11.1 17.7278 11.1 25.8996C11.1 32.7872 15.8264 38.5248 22.2 40.1753V73.9959C22.2 82.1689 28.8234 88.8 36.9963 88.8H50.2675L44.4033 94.6675L49.6359 99.9L61.8159 87.7155C63.2611 86.2747 63.2611 83.9293 61.8159 82.4841ZM25.8996 33.3C21.8126 33.3 18.5004 29.9866 18.5004 25.8996C18.5004 21.8137 21.8126 18.4993 25.8996 18.4993C29.9866 18.4993 33.3 21.8137 33.3 25.8996C33.3 29.9866 29.9866 33.3 25.8996 33.3Z" fill="black"/>
</svg>
